<?xml version="1.0" encoding="UTF-8" standalone="no"?>
<!DOCTYPE svg PUBLIC "-//W3C//DTD SVG 1.1//EN" "http://www.w3.org/Graphics/SVG/1.1/DTD/svg11.dtd">
<svg version="1.1" xmlns="http://www.w3.org/2000/svg" xmlns:xlink="http://www.w3.org/1999/xlink" preserveAspectRatio="xMidYMid meet" viewBox="0 0 640 640" width="640" height="640"><defs><path d="M20 2C20.54 2 21 2.46 21 3C21 4.7 21 18.3 21 20C21 20.54 20.54 21 20 21C18.3 21 4.7 21 3 21C2.46 21 2 20.54 2 20C2 18.3 2 4.7 2 3C2 2.46 2.46 2 3 2C4.13 2 9.8 2 20 2M3 0C1.35 0 0 1.35 0 3C0 4.7 0 18.3 0 20C0 21.65 1.35 23 3 23C4.7 23 18.3 23 20 23C21.65 23 23 21.65 23 20C23 18.3 23 4.7 23 3C23 1.35 21.65 0 20 0C16.6 0 4.7 0 3 0Z" id="b1hg7tDN11"></path></defs><g><g><g><use xlink:href="#b1hg7tDN11" opacity="1" fill="#6a6a6a" fill-opacity="1"></use><g><use xlink:href="#b1hg7tDN11" opacity="1" fill-opacity="0" stroke="#000000" stroke-width="1" stroke-opacity="0"></use></g></g></g></g></svg>